REM DIRINDEX 1\2\3,1\2\4,1\2\5,1\2\6
REM DIRNAME cjc157,folder01,folder02,folder03,folder04,folder05
TITLE ""
FILE "143 143.mp3" MP3
  TRACK 01 AUDIO
    TITLE "0:"
    INDEX 01 00:00:00
  TRACK 02 AUDIO
    TITLE "3:cjc157_5350"
    INDEX 01 00:00:09
  TRACK 03 AUDIO
    TITLE "0:"
    INDEX 01 00:01:40
  TRACK 04 AUDIO
    TITLE "4:cjc157_5351"
    INDEX 01 00:02:14
  TRACK 05 AUDIO
    TITLE "0:"
    INDEX 01 00:03:23
  TRACK 06 AUDIO
    TITLE "5:cjc157_5352"
    INDEX 01 00:03:68
  TRACK 07 AUDIO
    TITLE "0:"
    INDEX 01 00:06:02
  TRACK 08 AUDIO
    TITLE "3:cjc157_5353"
    INDEX 01 00:06:49
  TRACK 09 AUDIO
    TITLE "0:"
    INDEX 01 00:08:01
  TRACK 10 AUDIO
    TITLE "4:cjc157_5354"
    INDEX 01 00:08:50
  TRACK 11 AUDIO
    TITLE "0:"
    INDEX 01 00:09:65
  TRACK 12 AUDIO
    TITLE "5:cjc157_5355"
    INDEX 01 00:10:37
  TRACK 13 AUDIO
    TITLE "0:"
    INDEX 01 00:14:51
  TRACK 14 AUDIO
    TITLE "5:cjc157_5356"
    INDEX 01 00:15:27
  TRACK 15 AUDIO
    TITLE "0:"
    INDEX 01 00:19:24
  TRACK 16 AUDIO
    TITLE "3:cjc157_5357"
    INDEX 01 00:19:67
  TRACK 17 AUDIO
    TITLE "0:"
    INDEX 01 00:21:17
  TRACK 18 AUDIO
    TITLE "4:cjc157_5358"
    INDEX 01 00:21:60
  TRACK 19 AUDIO
    TITLE "0:"
    INDEX 01 00:23:18
  TRACK 20 AUDIO
    TITLE "5:cjc157_5359"
    INDEX 01 00:23:65
  TRACK 21 AUDIO
    TITLE "0:"
    INDEX 01 00:27:26
  TRACK 22 AUDIO
    TITLE "3:cjc157_5360"
    INDEX 01 00:28:02
  TRACK 23 AUDIO
    TITLE "0:"
    INDEX 01 00:29:38
  TRACK 24 AUDIO
    TITLE "4:cjc157_5361"
    INDEX 01 00:30:08
  TRACK 25 AUDIO
    TITLE "0:"
    INDEX 01 00:31:20
  TRACK 26 AUDIO
    TITLE "5:cjc157_5362"
    INDEX 01 00:32:00
  TRACK 27 AUDIO
    TITLE "0:"
    INDEX 01 00:34:06
  TRACK 28 AUDIO
    TITLE "5:cjc157_5363"
    INDEX 01 00:34:51
  TRACK 29 AUDIO
    TITLE "0:"
    INDEX 01 00:36:72
  TRACK 30 AUDIO
    TITLE "3:cjc157_5364"
    INDEX 01 00:37:44
  TRACK 31 AUDIO
    TITLE "0:"
    INDEX 01 00:38:57
  TRACK 32 AUDIO
    TITLE "4:cjc157_5365"
    INDEX 01 00:39:27
  TRACK 33 AUDIO
    TITLE "0:"
    INDEX 01 00:40:28
  TRACK 34 AUDIO
    TITLE "5:cjc157_5366"
    INDEX 01 00:41:02
  TRACK 35 AUDIO
    TITLE "0:"
    INDEX 01 00:45:18
  TRACK 36 AUDIO
    TITLE "5:cjc157_5367"
    INDEX 01 00:45:63
  TRACK 37 AUDIO
    TITLE "0:"
    INDEX 01 00:48:22
  TRACK 38 AUDIO
    TITLE "3:cjc157_5368"
    INDEX 01 00:48:65
  TRACK 39 AUDIO
    TITLE "0:"
    INDEX 01 00:50:13
  TRACK 40 AUDIO
    TITLE "4:cjc157_5369"
    INDEX 01 00:50:60
  TRACK 41 AUDIO
    TITLE "0:"
    INDEX 01 00:51:65
  TRACK 42 AUDIO
    TITLE "5:cjc157_5370"
    INDEX 01 00:52:36
  TRACK 43 AUDIO
    TITLE "0:"
    INDEX 01 00:55:44
  TRACK 44 AUDIO
    TITLE "3:cjc157_5371"
    INDEX 01 00:56:16
  TRACK 45 AUDIO
    TITLE "0:"
    INDEX 01 00:57:66
  TRACK 46 AUDIO
    TITLE "4:cjc157_5372"
    INDEX 01 00:58:32
  TRACK 47 AUDIO
    TITLE "0:"
    INDEX 01 00:59:38
  TRACK 48 AUDIO
    TITLE "5:cjc157_5373"
    INDEX 01 01:00:08
  TRACK 49 AUDIO
    TITLE "0:"
    INDEX 01 01:03:20
  TRACK 50 AUDIO
    TITLE "5:cjc157_5374"
    INDEX 01 01:03:61
  TRACK 51 AUDIO
    TITLE "0:"
    INDEX 01 01:05:40
  TRACK 52 AUDIO
    TITLE "3:cjc157_5375"
    INDEX 01 01:06:12
  TRACK 53 AUDIO
    TITLE "0:"
    INDEX 01 01:07:37
  TRACK 54 AUDIO
    TITLE "4:cjc157_5376"
    INDEX 01 01:08:09
  TRACK 55 AUDIO
    TITLE "0:"
    INDEX 01 01:09:40
  TRACK 56 AUDIO
    TITLE "5:cjc157_5377"
    INDEX 01 01:10:16
  TRACK 57 AUDIO
    TITLE "0:"
    INDEX 01 01:12:32
  TRACK 58 AUDIO
    TITLE "3:cjc157_5378"
    INDEX 01 01:13:02
  TRACK 59 AUDIO
    TITLE "0:"
    INDEX 01 01:14:17
  TRACK 60 AUDIO
    TITLE "4:cjc157_5379"
    INDEX 01 01:14:59
  TRACK 61 AUDIO
    TITLE "0:"
    INDEX 01 01:16:03
  TRACK 62 AUDIO
    TITLE "5:cjc157_5380"
    INDEX 01 01:16:48
  TRACK 63 AUDIO
    TITLE "0:"
    INDEX 01 01:18:47
  TRACK 64 AUDIO
    TITLE "5:cjc157_5381"
    INDEX 01 01:19:30
  TRACK 65 AUDIO
    TITLE "0:"
    INDEX 01 01:20:36
  TRACK 66 AUDIO
    TITLE "3:cjc157_5382"
    INDEX 01 01:21:10
  TRACK 67 AUDIO
    TITLE "0:"
    INDEX 01 01:22:68
  TRACK 68 AUDIO
    TITLE "4:cjc157_5383"
    INDEX 01 01:23:38
  TRACK 69 AUDIO
    TITLE "0:"
    INDEX 01 01:24:45
  TRACK 70 AUDIO
    TITLE "5:cjc157_5384"
    INDEX 01 01:25:21
  TRACK 71 AUDIO
    TITLE "0:"
    INDEX 01 01:27:06
